<svg width="241" height="76" viewBox="0 0 241 76" fill="none" xmlns="http://www.w3.org/2000/svg">
<g clip-path="url(#clip0_8210_6418)">
<path d="M106.036 6.16141L92.4701 46.0457L79.1119 6.16141H75.757L90.8413 51.125H94.0815L109.394 6.16141H106.036Z" fill="#282828"/>
<path d="M117.957 6.16141H114.683V51.125H117.957V6.16141Z" fill="#282828"/>
<path d="M148.27 34.3849C147.61 33.0522 146.68 31.9046 145.509 30.9755C144.378 30.0828 143.052 29.312 141.569 28.6867C140.156 28.0916 138.607 27.4949 136.963 26.9124C135.797 26.5008 134.645 26.045 133.534 25.559C132.487 25.0984 131.538 24.5112 130.712 23.8116C129.914 23.1341 129.267 22.3 128.788 21.3345C128.317 20.3832 128.076 19.1866 128.076 17.7778C128.076 16.3359 128.349 15.0759 128.888 14.0344C129.435 12.9787 130.165 12.0907 131.057 11.3958C131.975 10.6851 133.01 10.1486 134.134 9.80509C135.282 9.45212 136.471 9.27326 137.671 9.27326C139.361 9.27326 140.944 9.61832 142.377 10.3005C143.795 10.9748 144.978 11.9293 145.892 13.1401L146.542 14.0012L148.9 11.7915L148.356 11.0824C147.139 9.50277 145.565 8.27291 143.677 7.42609C141.807 6.58719 139.804 6.16141 137.728 6.16141C136.046 6.16141 134.42 6.41941 132.896 6.92908C131.364 7.44508 129.992 8.2001 128.819 9.17354C127.63 10.1612 126.677 11.3943 125.987 12.8394C125.293 14.2893 124.941 15.9512 124.941 17.7794C124.941 19.6297 125.233 21.2427 125.81 22.5707C126.389 23.905 127.219 25.0636 128.274 26.0117C129.303 26.9393 130.536 27.7307 131.938 28.3607C133.27 28.9621 134.769 29.5446 136.391 30.0907C137.649 30.5117 138.893 30.9771 140.091 31.4757C141.254 31.9585 142.298 32.5615 143.197 33.2675C144.068 33.9512 144.788 34.7838 145.336 35.7446C145.862 36.6611 146.127 37.8308 146.127 39.2205C146.127 40.6419 145.875 41.905 145.377 42.975C144.879 44.0481 144.191 44.9599 143.33 45.6848C142.451 46.4287 141.425 47.008 140.277 47.4069C139.127 47.809 137.885 48.0131 136.586 48.0131C134.775 48.0131 132.999 47.6428 131.307 46.9147C129.625 46.1897 128.128 45.0849 126.861 43.6334L126.201 42.8753L123.861 45.0659L124.47 45.7798C125.858 47.4164 127.621 48.7302 129.71 49.6846C131.797 50.6391 134.128 51.1234 136.641 51.1234C138.288 51.1234 139.897 50.8654 141.419 50.3542C142.97 49.8318 144.334 49.0499 145.468 48.029C146.61 47.008 147.536 45.7402 148.223 44.2634C148.914 42.7787 149.264 41.0803 149.264 39.2189C149.269 37.3528 148.933 35.7256 148.27 34.3849Z" fill="#282828"/>
<path d="M158.826 6.16141H155.551V51.125H158.826V6.16141Z" fill="#282828"/>
<path d="M183.416 6.16141H180.557L163.145 51.125H166.539L171.257 38.7947H192.208L196.766 51.125H200.148L183.416 6.16141ZM191.107 35.6813H172.442L181.916 10.769L191.107 35.6813Z" fill="#282828"/>
<path d="M233.712 6.16141V45.4205L207.431 6.16141H204.259V51.125H207.396V11.8121L233.335 50.6929L233.626 51.125H236.85V6.16141H233.712Z" fill="#282828"/>
<path d="M35.0165 45.9191C32.3967 47.2075 29.5853 47.8612 26.6592 47.8612C22.4028 47.8612 18.3631 46.4636 14.98 43.8186C10.2603 40.1322 7.55252 34.5875 7.55252 28.606C7.55252 22.6656 10.2273 17.1447 14.8921 13.4583C18.294 10.7706 22.362 9.34924 26.6608 9.34924C29.5868 9.34924 32.3983 10.0029 35.0149 11.2914L35.6102 11.5858L36.0987 11.1347C36.4065 10.8498 36.7379 10.5601 37.0819 10.2752L38.2159 9.33182L36.9107 8.64804C33.7129 6.9734 30.2638 6.125 26.6592 6.125C21.6379 6.125 16.8852 7.78381 12.9146 10.921C7.47241 15.2216 4.35001 21.6684 4.35001 28.6076C4.35001 35.5942 7.50854 42.068 13.0167 46.3702C16.9684 49.4567 21.685 51.0886 26.6576 51.0886C30.2622 51.0886 33.7129 50.2386 36.9123 48.564L38.1813 47.8992L35.5929 45.6341L35.0165 45.9191Z" fill="#282828"/>
<path d="M55.0781 6.125C50.2736 6.125 45.6889 7.65718 41.8173 10.5554L41.7718 10.5886C41.6257 10.6962 41.4812 10.8054 41.3304 10.9226C41.1906 11.0334 41.054 11.1489 40.9064 11.2755L40.7477 11.4101C35.6777 15.6996 32.7689 21.9676 32.7689 28.6092C32.7689 35.2507 35.6777 41.5172 40.7493 45.8019L40.8341 45.8747C41.0273 46.0394 41.2283 46.2087 41.4357 46.3702C41.5221 46.4382 41.61 46.5031 41.6995 46.5696L41.8173 46.6567C45.6889 49.5564 50.2752 51.0886 55.0781 51.0886C67.3793 51.0886 77.3858 41.0044 77.3858 28.6092C77.3858 16.2108 67.3793 6.125 55.0781 6.125ZM50.1589 28.5649C50.1589 22.7353 47.9255 17.246 43.8576 13.0483L43.9879 12.947C47.2423 10.5933 51.0777 9.35082 55.0781 9.35082C65.6139 9.35082 74.1848 17.9899 74.1848 28.6092C74.1848 39.2252 65.6139 47.8628 55.0781 47.8628C51.0809 47.8628 47.2517 46.6218 44.0052 44.2745L43.8136 44.1241C47.9098 39.9201 50.1589 34.4166 50.1589 28.5649ZM46.947 28.5649C46.947 33.6442 44.9696 38.3879 41.3681 41.973C37.8829 38.3642 35.9699 33.6363 35.9699 28.6076C35.9699 23.5029 37.9285 18.7259 41.4953 15.1044C45.0151 18.6531 46.947 23.4143 46.947 28.5649Z" fill="#282828"/>
<path d="M36.225 62.1782H38.6611V68.7937H40.4226V62.1782H42.8587V60.6405H36.225V62.1782Z" fill="#282828"/>
<path d="M47.3387 65.3925H50.874V63.9243H47.3387V62.1534H51.3418V60.6405H45.5881V68.7937H51.4823V67.2791H47.3387V65.3925Z" fill="#282828"/>
<path d="M57.1264 62.4395C57.4969 62.2179 57.9168 62.1071 58.3876 62.1071C59.1487 62.1071 59.7863 62.4263 60.3019 63.0628L61.4335 61.9451C61.0707 61.4788 60.623 61.1217 60.0904 60.8737C59.5578 60.6257 58.9619 60.5017 58.3012 60.5017C57.5185 60.5017 56.813 60.6819 56.1862 61.044C55.5594 61.4044 55.0654 61.9054 54.7072 62.547C54.3491 63.1868 54.1685 63.9111 54.1685 64.7196C54.1685 65.5265 54.3475 66.2507 54.7072 66.8922C55.0654 67.5321 55.5594 68.0331 56.1862 68.3952C56.813 68.7556 57.5139 68.9375 58.2904 68.9375C58.9496 68.9375 59.5486 68.8135 60.0843 68.5655C60.62 68.3175 61.0707 67.9554 61.432 67.4825L60.3004 66.3648C59.7848 67.0096 59.1472 67.332 58.3861 67.332C57.9152 67.332 57.4938 67.2212 57.1248 66.9997C56.7543 66.7781 56.4672 66.4706 56.2603 66.0737C56.0534 65.6769 55.95 65.2272 55.95 64.7229C55.95 64.2186 56.0534 63.7672 56.2603 63.372C56.4687 62.9702 56.7558 62.661 57.1264 62.4395Z" fill="#282828"/>
<path d="M69.6202 63.8548H66.1622V60.6405H64.4007V68.7937H66.1622V65.4504H69.6202V68.7937H71.3833V60.6405H69.6202V63.8548Z" fill="#282828"/>
<path d="M75.4928 66.626C75.1949 66.626 74.9448 66.7285 74.7425 66.9352C74.5388 67.1419 74.4384 67.4114 74.4384 67.7454C74.4384 68.0711 74.5403 68.3439 74.7425 68.5605C74.9448 68.7788 75.1949 68.8862 75.4928 68.8862C75.7908 68.8862 76.0409 68.7771 76.2431 68.5605C76.4453 68.3439 76.5472 68.0711 76.5472 67.7454C76.5472 67.4114 76.4453 67.1419 76.2431 66.9352C76.0409 66.7302 75.7908 66.626 75.4928 66.626Z" fill="#282828"/>
<path d="M89.5166 61.001C89.0195 60.7596 88.4344 60.6405 87.7598 60.6405H84.4653V68.7937H86.2268V66.5466H87.7598C88.4344 66.5466 89.0195 66.4276 89.5166 66.1911C90.0137 65.9547 90.395 65.6124 90.6636 65.166C90.9322 64.7196 91.0666 64.1971 91.0666 63.6002C91.0666 62.995 90.9322 62.4709 90.6636 62.0278C90.395 61.583 90.0121 61.2424 89.5166 61.001ZM88.8682 64.6402C88.5934 64.8849 88.1905 65.0073 87.661 65.0073H86.2252V62.1766H87.661C88.1905 62.1766 88.5919 62.2989 88.8682 62.5437C89.143 62.7884 89.2819 63.1389 89.2819 63.5969C89.2819 64.0483 89.1445 64.3955 88.8682 64.6402Z" fill="#282828"/>
<path d="M95.8508 65.3925H99.3845V63.9243H95.8508V62.1534H99.8523V60.6405H94.1001V68.7937H99.9943V67.2791H95.8508V65.3925Z" fill="#282828"/>
<path d="M108.976 61.0473C108.345 60.6819 107.634 60.5 106.844 60.5C106.054 60.5 105.342 60.6819 104.707 61.0473C104.073 61.4127 103.576 61.9153 103.218 62.5552C102.86 63.1951 102.679 63.916 102.679 64.7163C102.679 65.5165 102.858 66.2358 103.218 66.8773C103.576 67.5172 104.073 68.0215 104.707 68.3852C105.342 68.7507 106.054 68.9325 106.844 68.9325C107.634 68.9325 108.345 68.7507 108.976 68.3852C109.607 68.0198 110.103 67.5172 110.466 66.8773C110.829 66.2374 111.009 65.5165 111.009 64.7163C111.009 63.916 110.829 63.1968 110.466 62.5552C110.103 61.9153 109.606 61.4127 108.976 61.0473ZM108.916 66.0671C108.709 66.464 108.425 66.7715 108.062 66.9931C107.699 67.2146 107.293 67.3254 106.844 67.3254C106.395 67.3254 105.989 67.2146 105.626 66.9931C105.263 66.7715 104.979 66.464 104.772 66.0671C104.565 65.6703 104.462 65.2206 104.462 64.7163C104.462 64.212 104.565 63.7606 104.772 63.3654C104.979 62.9686 105.263 62.661 105.626 62.4395C105.989 62.2179 106.395 62.1071 106.844 62.1071C107.293 62.1071 107.699 62.2179 108.062 62.4395C108.425 62.661 108.709 62.9686 108.916 63.3654C109.123 63.7622 109.226 64.212 109.226 64.7163C109.226 65.2206 109.123 65.672 108.916 66.0671Z" fill="#282828"/>
<path d="M119.171 61.001C118.674 60.7596 118.089 60.6405 117.414 60.6405H114.12V68.7937H115.881V66.5466H117.414C118.089 66.5466 118.674 66.4276 119.171 66.1911C119.668 65.9547 120.05 65.6124 120.318 65.166C120.587 64.7196 120.721 64.1971 120.721 63.6002C120.721 62.995 120.587 62.4709 120.318 62.0278C120.05 61.583 119.667 61.2424 119.171 61.001ZM118.523 64.6402C118.248 64.8849 117.845 65.0073 117.316 65.0073H115.88V62.1766H117.316C117.845 62.1766 118.246 62.2989 118.523 62.5437C118.798 62.7884 118.937 63.1389 118.937 63.5969C118.937 64.0483 118.799 64.3955 118.523 64.6402Z" fill="#282828"/>
<path d="M125.516 60.6405H123.755V68.7937H129.332V67.256H125.516V60.6405Z" fill="#282828"/>
<path d="M133.856 65.3925H137.391V63.9243H133.856V62.1534H137.859V60.6405H132.105V68.7937H137.999V67.2791H133.856V65.3925Z" fill="#282828"/>
<path d="M141.817 66.626C141.519 66.626 141.269 66.7285 141.067 66.9352C140.863 67.1419 140.763 67.4114 140.763 67.7454C140.763 68.0711 140.865 68.3439 141.067 68.5605C141.269 68.7788 141.519 68.8862 141.817 68.8862C142.113 68.8862 142.365 68.7771 142.567 68.5605C142.77 68.3439 142.871 68.0711 142.871 67.7454C142.871 67.4114 142.77 67.1419 142.567 66.9352C142.364 66.7302 142.113 66.626 141.817 66.626Z" fill="#282828"/>
<path d="M155.171 64.4137C154.8 64.2665 154.326 64.1194 153.746 63.9706C153.187 63.8383 152.773 63.7044 152.5 63.5688C152.228 63.4332 152.093 63.2249 152.093 62.9454C152.093 62.666 152.21 62.4411 152.446 62.2708C152.681 62.1005 153.047 62.0146 153.539 62.0146C154.241 62.0146 154.945 62.2278 155.649 62.6544L156.193 61.2226C155.845 60.9894 155.439 60.8108 154.975 60.6868C154.51 60.5628 154.036 60.5 153.55 60.5C152.854 60.5 152.265 60.6124 151.782 60.8373C151.301 61.0622 150.939 61.3664 150.7 61.7517C150.461 62.1353 150.342 62.5651 150.342 63.038C150.342 63.582 150.475 64.0169 150.739 64.3426C151.003 64.6683 151.321 64.9064 151.69 65.0536C152.059 65.2007 152.534 65.3479 153.115 65.4967C153.491 65.5893 153.791 65.6753 154.011 65.753C154.232 65.8307 154.414 65.9332 154.555 66.0622C154.695 66.1911 154.766 66.3515 154.766 66.545C154.766 66.8095 154.647 67.0212 154.408 67.1799C154.169 67.3386 153.8 67.418 153.298 67.418C152.849 67.418 152.4 67.3403 151.95 67.1849C151.501 67.0294 151.114 66.8244 150.786 66.5681L150.189 67.9884C150.53 68.2679 150.981 68.4944 151.543 68.6696C152.105 68.8449 152.687 68.9309 153.289 68.9309C153.985 68.9309 154.576 68.8185 155.061 68.5936C155.548 68.3687 155.912 68.0645 156.154 67.6792C156.397 67.2956 156.519 66.869 156.519 66.4044C156.519 65.8604 156.386 65.4306 156.122 65.1114C155.858 64.794 155.54 64.5608 155.171 64.4137Z" fill="#282828"/>
<path d="M166.621 60.6405L163.816 65.7067L160.966 60.6405H159.509V68.7937H161.162V64.0053L163.392 67.9306H164.185L166.425 63.9011L166.436 68.7937H168.089L168.068 60.6405H166.621Z" fill="#282828"/>
<path d="M173.438 60.6405H171.677V68.7937H173.438V60.6405Z" fill="#282828"/>
<path d="M178.789 60.6405H177.028V68.7937H182.607V67.256H178.789V60.6405Z" fill="#282828"/>
<path d="M187.13 65.3925H190.664V63.9243H187.13V62.1534H191.132V60.6405H185.38V68.7937H191.274V67.2791H187.13V65.3925Z" fill="#282828"/>
<path d="M198.842 64.4137C198.471 64.2665 197.997 64.1194 197.417 63.9706C196.858 63.8383 196.444 63.7044 196.171 63.5688C195.899 63.4332 195.763 63.2249 195.763 62.9454C195.763 62.666 195.881 62.4411 196.117 62.2708C196.351 62.1005 196.717 62.0146 197.21 62.0146C197.912 62.0146 198.616 62.2278 199.32 62.6544L199.864 61.2226C199.516 60.9894 199.11 60.8108 198.645 60.6868C198.181 60.5628 197.707 60.5 197.221 60.5C196.524 60.5 195.936 60.6124 195.453 60.8373C194.971 61.0622 194.61 61.3664 194.371 61.7517C194.131 62.1353 194.013 62.5651 194.013 63.038C194.013 63.582 194.145 64.0169 194.409 64.3426C194.673 64.6683 194.991 64.9064 195.36 65.0536C195.729 65.2007 196.205 65.3479 196.785 65.4967C197.162 65.5893 197.461 65.6753 197.682 65.753C197.903 65.8307 198.085 65.9332 198.226 66.0622C198.366 66.1911 198.437 66.3515 198.437 66.545C198.437 66.8095 198.318 67.0212 198.079 67.1799C197.84 67.3386 197.471 67.418 196.969 67.418C196.52 67.418 196.07 67.3403 195.621 67.1849C195.172 67.0294 194.784 66.8244 194.457 66.5681L193.86 67.9884C194.201 68.2679 194.652 68.4944 195.214 68.6696C195.776 68.8449 196.358 68.9309 196.96 68.9309C197.656 68.9309 198.247 68.8185 198.732 68.5936C199.218 68.3687 199.583 68.0645 199.825 67.6792C200.067 67.2956 200.189 66.869 200.189 66.4044C200.189 65.8604 200.056 65.4306 199.792 65.1114C199.529 64.794 199.212 64.5608 198.842 64.4137Z" fill="#282828"/>
<path d="M204.671 66.9352C204.469 66.7302 204.219 66.626 203.921 66.626C203.623 66.626 203.373 66.7285 203.17 66.9352C202.967 67.1419 202.866 67.4114 202.866 67.7454C202.866 68.0711 202.968 68.3439 203.17 68.5605C203.373 68.7788 203.623 68.8862 203.921 68.8862C204.217 68.8862 204.469 68.7771 204.671 68.5605C204.873 68.3439 204.975 68.0711 204.975 67.7454C204.975 67.4114 204.873 67.1419 204.671 66.9352Z" fill="#282828"/>
</g>
<defs>
<clipPath id="clip0_8210_6418">
<rect width="240" height="75" fill="white" transform="translate(0.600006 0.5)"/>
</clipPath>
</defs>
</svg>
